<svg xmlns="http://www.w3.org/2000/svg" viewBox="0 0 378.7 43.95"><defs><style>.cls-1{fill:none;stroke:#000;stroke-miterlimit:10;}.cls-2{fill:#231815;}.cls-3{fill:#db5411;}.cls-4{fill:#11337f;}</style></defs><title>header-logo</title><g id="レイヤー_2" data-name="レイヤー 2"><g id="レイヤー_1-2" data-name="レイヤー 1"><path d="M304.92,12a2.84,2.84,0,0,1,2.94-2.62,2.49,2.49,0,0,1,2.75,2.55c0,1.09-.41,1.9-2.05,3.33a9.35,9.35,0,0,0-2.6,3.16h4.66v.93h-5.78v-.84a10.88,10.88,0,0,1,2.9-3.84c1.39-1.3,1.7-1.87,1.7-2.74a1.51,1.51,0,0,0-1.6-1.62c-1,0-1.63.65-1.81,1.95Z"/><path d="M318.28,14.4c0,3.58-1.06,5.13-3,5.13s-3-1.52-3-5.11,1.1-5,3-5S318.28,10.82,318.28,14.4Zm-4.79,0c0,3,.6,4.18,1.81,4.18s1.83-1.15,1.83-4.18-.58-4.1-1.8-4.1S313.49,11.36,313.49,14.41Z"/><path d="M320,12a2.84,2.84,0,0,1,2.93-2.62,2.48,2.48,0,0,1,2.75,2.55c0,1.09-.4,1.9-2,3.33a9.35,9.35,0,0,0-2.6,3.16h4.66v.93h-5.78v-.84a11,11,0,0,1,2.89-3.84c1.4-1.3,1.71-1.87,1.71-2.74a1.51,1.51,0,0,0-1.6-1.62c-1,0-1.64.65-1.81,1.95Z"/><path d="M333.31,14.4c0,3.58-1.06,5.13-3,5.13s-3-1.52-3-5.11,1.09-5,3-5S333.31,10.82,333.31,14.4Zm-4.79,0c0,3,.59,4.18,1.81,4.18s1.83-1.15,1.83-4.18-.58-4.1-1.8-4.1S328.52,11.36,328.52,14.41Z"/><path d="M346.72,17.25c0,.1,0,.11-.11.11s-.5,0-1.77,0h-3v.91c0,1.5,0,2.17,0,2.23s0,.1-.09.1h-.68c-.11,0-.12,0-.12-.1s0-.73,0-2.23v-.91h-4.12c-1.27,0-1.7,0-1.77,0s-.11,0-.11-.11v-.61c0-.09,0-.11.11-.11s.5,0,1.77,0h.41v-2c0-.78,0-1.09,0-1.18s0-.1.11-.1.54,0,1.89,0H341V11.08h-3.09a13,13,0,0,1-1.72,2.1c-.08.09-.13.15-.17.15s-.1-.06-.19-.17a1.52,1.52,0,0,0-.46-.36A10.77,10.77,0,0,0,338,9.24a3.45,3.45,0,0,0,.28-.89,8.1,8.1,0,0,1,.84.25.19.19,0,0,1,.14.18c0,.08,0,.12-.12.19a1.11,1.11,0,0,0-.34.49c-.15.29-.3.59-.46.88H344c1.35,0,1.81,0,1.88,0s.11,0,.11.11V11c0,.09,0,.11-.11.11s-.53,0-1.88,0H341.8v2.23h1.63c1.36,0,1.8,0,1.88,0s.1,0,.1.1V14c0,.09,0,.11-.1.11s-.52,0-1.88,0H341.8v2.5h3c1.27,0,1.71,0,1.77,0s.11,0,.11.11ZM341,14.06h-2.89v2.5H341Z"/><path d="M353.15,16.16h1.37v.89h-1.37v2.3h-1v-2.3h-3.93v-.84l3.4-6.77h1.54Zm-1-3.44c0-.79,0-1.5.05-2.38H352c-.32.74-.61,1.43-.94,2.12l-1.8,3.7h2.92Z"/><path d="M365.51,17c0,.75,0,1.5,0,2.15a1.25,1.25,0,0,1-.38,1c-.32.28-.82.28-1.93.28-.28,0-.28,0-.34-.27a2.44,2.44,0,0,0-.25-.64c.48,0,.83.07,1.42.07.42,0,.61-.16.61-.62V16h-5.29a6.9,6.9,0,0,1-2.1,4.39c-.08.09-.12.15-.17.15s-.11-.06-.22-.14a1.94,1.94,0,0,0-.58-.31c2-1.83,2.41-3.33,2.41-7.46V11c0-1.16,0-1.69,0-1.77s0-.11.11-.11.51,0,1.77,0h3.09c1.26,0,1.69,0,1.77,0s.11,0,.11.11,0,.61,0,1.77Zm-.84-4.07h-5.11c0,.89,0,1.65-.1,2.33h5.21Zm0-3h-5.11v2.26h5.11Z"/><path d="M328.86,28.81c0,.84,0,1.18,0,1.24s0,.11-.11.11-.41,0-1.35,0H325v4.72c0,1.93,0,2.73,0,2.81s0,.11-.11.11h-.63c-.1,0-.11,0-.11-.11s0-.88,0-2.81V29c0-1.94,0-2.76,0-2.84s0-.11.11-.11.53,0,1.53,0h1.64c.94,0,1.28,0,1.35,0s.11,0,.11.11,0,.42,0,1.24Zm-.77-2.07H325v1h3.11Zm0,1.68H325v1.07h3.11Zm5.26,5.78c0,.09,0,.1-.1.1s-.52,0-1.85,0h-.19v1.44c0,1,0,1.41,0,1.49s0,.11-.11.11h-.59c-.1,0-.11,0-.11-.11s0-.48,0-1.49V34.28h-1.93a4.73,4.73,0,0,1-.4,1.54,4.09,4.09,0,0,1-1.21,1.53c-.08.07-.13.11-.17.11s-.11-.06-.22-.16a1.55,1.55,0,0,0-.47-.33,3.34,3.34,0,0,0,1.35-1.41,3.22,3.22,0,0,0,.35-1.28h-.08c-1.32,0-1.76,0-1.84,0s-.11,0-.11-.1v-.51c0-.09,0-.1.11-.1s.52,0,1.84,0h.14c0-.42,0-.94,0-1.61-1.09,0-1.48,0-1.52,0s-.12,0-.12-.11v-.5c0-.09,0-.11.12-.11s.48,0,1.75,0h3c1.27,0,1.69,0,1.76,0s.1,0,.1.11v.5c0,.1,0,.11-.1.11s-.47,0-1.64,0v1.61h.19c1.33,0,1.78,0,1.85,0s.1,0,.1.1ZM330.46,32h-1.83c0,.64,0,1.17,0,1.61h1.87ZM335,34.34c0,.75,0,1.45,0,2s-.1.82-.35,1-.56.27-1.64.27c-.26,0-.24,0-.31-.26a2.08,2.08,0,0,0-.25-.6,8.74,8.74,0,0,0,1,.06c.6,0,.72-.11.72-.65v-6h-2.48c-1.05,0-1.39,0-1.46,0s-.12,0-.12-.11,0-.32,0-1.16V27.32c0-.83,0-1.08,0-1.16s0-.11.12-.11.41,0,1.46,0h1.73c1,0,1.4,0,1.47,0s.1,0,.1.11,0,.62,0,1.93Zm-.8-7.6H331v1h3.26Zm0,1.68H331v1.07h3.26Z"/><path d="M349.07,33.91c0,.1,0,.11-.11.11s-.49,0-1.76,0h-3.6V35.4c0,.28,0,.84,0,1.16,0,.48-.09.69-.36.88s-.62.25-1.88.22c-.26,0-.26,0-.33-.26a2.18,2.18,0,0,0-.28-.62,12.07,12.07,0,0,0,1.41.08c.39,0,.59-.09.59-.53V34h-3.69c-1.28,0-1.7,0-1.76,0s-.11,0-.11-.11v-.59c0-.1,0-.11.11-.11s.48,0,1.76,0h3.69a6.83,6.83,0,0,0-.09-1.34c.26,0,.48.09.69.14a11.65,11.65,0,0,0,1.76-1.25h-3.64c-1.28,0-1.7,0-1.76,0s-.11,0-.11-.11v-.55c0-.1,0-.11.11-.11s.48,0,1.76,0h3.79a1.47,1.47,0,0,0,.35,0,.5.5,0,0,1,.13,0c.09,0,.17.07.38.29s.27.32.27.42a.16.16,0,0,1-.13.17,1.48,1.48,0,0,0-.57.36,16.57,16.57,0,0,1-2.09,1.36c0,.1,0,.25,0,.46v.16h3.6c1.27,0,1.69,0,1.76,0s.11,0,.11.11Zm-.45-4.55c0,1.21,0,1.38,0,1.45s0,.11-.12.11h-.61c-.1,0-.11,0-.11-.11v-2h-9.32v2c0,.1,0,.11-.11.11h-.62c-.1,0-.11,0-.11-.11s0-.26,0-1.45v-.47c0-.46,0-.66,0-.74s0-.1.11-.1.55,0,1.86,0h5.63a8.94,8.94,0,0,0,.88-1.67,2.32,2.32,0,0,0,.18-.62,4.37,4.37,0,0,1,.8.28c.1.06.15.11.15.18a.18.18,0,0,1-.1.15,1,1,0,0,0-.26.31,12.84,12.84,0,0,1-.81,1.37h.57c1.33,0,1.8,0,1.87,0s.12,0,.12.1,0,.28,0,.66Zm-9.12-3.45c.15-.07.19-.07.26,0a10.74,10.74,0,0,1,1,1.51c.06.1,0,.1-.12.18l-.37.17c-.09,0-.13.07-.17.07s-.05,0-.08-.09a8.36,8.36,0,0,0-1-1.53c-.05-.07,0-.11.12-.18Zm3.19-.21c.14-.06.18-.06.24,0a8.69,8.69,0,0,1,.83,1.6c0,.09,0,.09-.15.18l-.36.13c-.19.08-.22.08-.26,0a6.81,6.81,0,0,0-.78-1.6c-.07-.09,0-.12.12-.17Z"/><polyline class="cls-1" points="301.7 41.15 295.2 41.15 295.2 4.15 301.7 4.15"/><polyline class="cls-1" points="371.7 4.15 378.2 4.15 378.2 41.15 371.7 41.15"/><path class="cls-2" d="M65.7,26.94a17.55,17.55,0,0,0,.49,3.71H62.67a35.93,35.93,0,0,0,0-3.75v-20c0-1.57,0-2.45,0-3.4a28.93,28.93,0,0,0,3.16.11h5.49a30.51,30.51,0,0,0,3.3-.11c-.06.86.09,1.77.09,2.82V11c0,1.36-.18,2-.12,2.74-.74-.06-1.88-.07-3-.07H65.7Zm0-19.29h6v-2h-6Zm0,4h6v-2h-6Zm5.36,9c.06-1-.13-1.59-.13-3-1.39,0-2.23-.14-3.23-.05V14.93c1,.1,2-.28,3.45-.28H80c1.48,0,2.75.38,2.75.28v2.69a12.86,12.86,0,0,0-3-.13v3.16h.68a23.08,23.08,0,0,0,3.32-.47v2.74a29,29,0,0,0-3.32-.27H79.7v4.63a5.3,5.3,0,0,0,.37,2.37H76.92c.13-1-.22-1.08-.22-2.41V22.65h-3A11.11,11.11,0,0,1,70,30.16a11.33,11.33,0,0,0-2.4-2,7.3,7.3,0,0,0,3.27-5.35,28.26,28.26,0,0,0-3.15.14V20.18a18.81,18.81,0,0,0,3,.47Zm2.9-3c0,1,0,1-.09,3H76.7v-3ZM88.7,26.9c0,2.69-1.1,3.4-4.53,3.4-.49,0-1.06,0-2-.06A9.8,9.8,0,0,0,81.23,27a19.61,19.61,0,0,0,2.54.25c1,0,.93-.13.93-.78V13.65H79.21c-1,0-1.92,0-2.69,0A26.19,26.19,0,0,0,76.7,11V6.36c0-1.11-.12-1.93-.18-2.82a25,25,0,0,0,3,.11h5.77a32,32,0,0,0,3.32-.11c-.09,1.11.09,1.86.09,3.37Zm-9-19.25h5v-2h-5Zm0,4h5v-2h-5Z"/><path class="cls-2" d="M93.4,27.15A19.56,19.56,0,0,0,97,18.76l3.12.74A28.93,28.93,0,0,1,96.49,29Zm12.3-21.6a14.9,14.9,0,0,0-.36-2.9h3.77a18.24,18.24,0,0,0-.41,2.9v1.1h8.43a25.7,25.7,0,0,0,3.57-.32V9.75c-1-.09-2.21-.1-3.57-.1H108.7v4h7a17.46,17.46,0,0,0,3-.38v3.24c-1-.12-1.63.14-3.08.14H99.26c-1.44,0-2.56-.26-3.56-.14V13.27a24.4,24.4,0,0,0,3.56.38h6.44v-4H97.78a29.61,29.61,0,0,0-3.08.1V6.33a10.16,10.16,0,0,0,3.08.32h7.92Zm-.94,12.1a21.08,21.08,0,0,0-.06,3V26c0,1,.26,1.08,3.25,1.08s3.56-.09,3.87-.56.38-1.14.45-3.39a7.64,7.64,0,0,0,3.26,1.08c-.31,5.58-.7,6-7.85,6-5.12,0-6-.5-6-3.06V20.64a19,19,0,0,0-.49-3Zm5,6.14a22.54,22.54,0,0,0-4.6-5l2.31-1.85a27.89,27.89,0,0,1,4.69,4.72Zm8.54,4.75A34.07,34.07,0,0,0,114.2,20L117,18.67a45.56,45.56,0,0,1,4.38,8.14Z"/><path class="cls-2" d="M129.13,7.65A33.25,33.25,0,0,0,125.7,8V4.88a35.05,35.05,0,0,0,3.5-.23h8.32a11.27,11.27,0,0,0-.18-2h3.55a10.42,10.42,0,0,0-.19,2h8.89c1.54,0,2.11.38,3.11.23V8a25.36,25.36,0,0,0-3-.31h-9v2h6.76a16.75,16.75,0,0,0,2.62-.32,12.8,12.8,0,0,0-.38,2.21v5.92c0,1,.49,1.51.58,2.38-.9-.06-1.58-.09-2.58-.09v1.9h1.92c1.54,0,2.08-.52,3.08-.67v3.09a27.14,27.14,0,0,0-3-.42h-2v4.21A2.23,2.23,0,0,1,146.55,30c-.68.43-1.83.58-4,.58-.43,0-1.13,0-2.15-.06a9.92,9.92,0,0,0-.95-3.08,21.71,21.71,0,0,0,3.2.25c1.11,0,1.07-.1,1.07-.68V23.65H129.13c-1.08,0-2.43.32-3.43.42V21a19.46,19.46,0,0,0,3.5.67h14.5v-2H131.32c-1.38,0-1.94.08-2.8.14a19.31,19.31,0,0,0,.18-2.33V11.54a16.9,16.9,0,0,0-.18-2.21,19.3,19.3,0,0,0,2.8.32h6.38v-2ZM135.58,30a18.51,18.51,0,0,0-4.23-4l2.41-1.94a18,18,0,0,1,4.35,3.76ZM131.7,13.65h6v-2h-6Zm0,4h6v-2h-6Zm9-4h6v-2h-6Zm0,4h6v-2h-6Z"/><path class="cls-2" d="M161.7,26.87a20.89,20.89,0,0,0,.45,3.78h-3.58a32.51,32.51,0,0,0,.13-3.78V7c0-1.61,0-2.5-.09-3.46a27.71,27.71,0,0,0,3.11.07h5.36a22.89,22.89,0,0,0,2.9-.07c-.06.84-.28,1.7-.28,2.87v5.89a15.7,15.7,0,0,0,.25,2.54c-.71,0-1.51-.23-2.56-.23H161.7Zm0-18.22h5v-2h-5Zm0,4h5v-2h-5Zm22,14.16c0,2.9-.75,3.46-5.07,3.46-.55,0-1.22,0-2.45-.07a13.44,13.44,0,0,0-.82-3.3,32.21,32.21,0,0,0,4.17.28c.93,0,1.17-.12,1.17-.74V14.65H175c-1.11,0-1.92.2-2.57.23a15.47,15.47,0,0,0,.32-2.54V6.45c0-1-.26-1.94-.32-2.87a22.51,22.51,0,0,0,2.85.07h5.68a25.63,25.63,0,0,0,3-.07A33.42,33.42,0,0,0,183.7,7Zm-8-18.16h5v-2h-5Zm0,4h5v-2h-5Z"/><path class="cls-2" d="M208.7,8.11a3.11,3.11,0,0,0-1.12.12,32.7,32.7,0,0,1-.91,3.42h2.41c-.06-2-.06-2.44-.09-6.48a19.38,19.38,0,0,0-.1-2.52h3.18a26.73,26.73,0,0,0-.18,4.16c0,1.08,0,3.84.06,4.84h1.76a10.63,10.63,0,0,0,3-.48v3.18c-1-.13-1.21.3-3,.3h-1.64c.12,2,.31,3.75.56,5.32a20,20,0,0,0,1.69-4.46L216.79,17c-.18.37-.43.86-.68,1.42a36,36,0,0,1-2.59,5,13.37,13.37,0,0,0,1,2.49c.28.47.4.62.46.62.22,0,.4-1.42.5-3.8a11.51,11.51,0,0,0,2.4,1.6,14,14,0,0,1-.89,4.42,2.05,2.05,0,0,1-1.85,1.41c-1.3,0-2.72-1.48-3.8-3.91a26.07,26.07,0,0,1-4.84,4.47,10.37,10.37,0,0,0-1.92-2.49c1.08-.71,1.46-.59,2.07-1.59h-5v2h-2.37a21.21,21.21,0,0,0,.37-2.39V18.05a19.05,19.05,0,0,0-.21-2.59,8.89,8.89,0,0,0,1.81.19h4.79a15.15,15.15,0,0,0,1.84-.19,13.2,13.2,0,0,0-.23,2.62v7.77a13.81,13.81,0,0,0,2.54-2.42,46.92,46.92,0,0,1-1.07-8.78H197.7V27.58a16.35,16.35,0,0,0,.39,3.07H195c.12-1-.34-1.68-.34-3.1V25.27a28.27,28.27,0,0,1-3.58,1.17,9.07,9.07,0,0,0-1.91.62l-.43-3.24a15.87,15.87,0,0,0,1.92-.25V6.73c-1,0-1,.06-2,.12V3.64a26.27,26.27,0,0,0,2.82,0h4.78a13,13,0,0,0,2.4,0V5.49a17.57,17.57,0,0,0,2.11.16h1.89V5.43c0-1.23-.5-1.78-.66-2.78h3.27c-.12,1-.61,1.58-.61,2.78v.22h1.54c1.08,0,1.46-.06,2.46-.12Zm-16,2.54h2v-4h-2Zm0,6h2v-4h-2Zm0,6.3c1-.27,2-.34,2-.58V18.65h-2Zm7.83-11.3a31.17,31.17,0,0,0-.71-3.44c-.46,0-.12-.13-1.12-.06V6.79s0,0-1-.06v4.92Zm1.17,8h4v-2h-4Zm0,5h4v-2h-4Zm.75-17a35.26,35.26,0,0,1,.52,4h1.26a20,20,0,0,0,.68-4ZM214.66,4.2a21.47,21.47,0,0,1,2.41,4.59l-2.38,1.39a16.18,16.18,0,0,0-2.22-4.81Z"/><path class="cls-2" d="M236.79,13.65a27.63,27.63,0,0,0,4.35,7.78,20.79,20.79,0,0,0,8.36,5.72,12.73,12.73,0,0,0-2.22,3.45,25,25,0,0,1-7.47-5.53,23.23,23.23,0,0,1-4.57-7.35,18.3,18.3,0,0,1-4.93,8.11,23,23,0,0,1-7.22,4.75A12.56,12.56,0,0,0,221,27.4a21.52,21.52,0,0,0,4.9-2.48,15.26,15.26,0,0,0,6.79-11.27h-7.09a32,32,0,0,0-3.86,0V9.81c1,.13,2.07-.16,3.86-.16H233c.06-1,.06-1.69.06-3.3a14.37,14.37,0,0,0-.21-2.7h4a16.64,16.64,0,0,0-.22,3.26c0,1.23,0,1.74-.06,2.74h8c1.7,0,3.11.29,4.11.16v3.8c-1-.13-2.44,0-4.08,0Z"/><path class="cls-2" d="M257.21,22.65c-1.57,0-2.51-.16-3.51,0V19.28a23.36,23.36,0,0,0,3.48.37h8.52v-.4a4.49,4.49,0,0,0-.37-1.6h1.29c1.3-1,2.32-1,3.58-2h-8.33c-1.23,0-2.17-.47-3.17-.38v-3a28.09,28.09,0,0,0,3.2.37h10a10.84,10.84,0,0,0,2.31-.25l1.67,1.79c-.49.4-.52.37-1.1.87-2.13,1.82-4.08,2.93-6.08,4.38v.21h7.92a31.64,31.64,0,0,0,4.08-.37v3.33c-1-.12-2.51,0-4.11,0H268.7v5.06a3.21,3.21,0,0,1-.34,1.91c-.53.74-1.56,1-4.28,1-.4,0-1.38,0-3-.1a10.41,10.41,0,0,0-1-3.21,33.3,33.3,0,0,0,3.91.28c1.32,0,1.68-.09,1.68-.68V22.65Zm1.58-15c-.68-1-1.11-2-2.25-3.5l3-.86a20.42,20.42,0,0,1,2.74,4.36h3.18a9.67,9.67,0,0,0-1.79-3.87l3.12-.86a24.67,24.67,0,0,1,2.1,4.73h2.56A17.76,17.76,0,0,0,273.94,3l3.27,1a38.77,38.77,0,0,1-2.29,3.65h1.36a29.91,29.91,0,0,0,3.64-.2,15.81,15.81,0,0,0-.22,2.42v2.81a5.32,5.32,0,0,0,.34,2H276.7v-4h-20v4h-2.94a12.37,12.37,0,0,0-.06-2V9.87a21.27,21.27,0,0,0,0-2.42,28.61,28.61,0,0,0,3.68.2Z"/><path class="cls-3" d="M2.43,17.77C6.66,7.31,12,1.07,15.32,1c4-.11,6.3,2.37,8.12,6.74S26.3,16,27.12,18s5.09,7,7.49,7.9,3.81,1,5.91-.55,3.88-6.09,5.32-11.09,2.07-10.53.45-11.4-4.52.33-8.07,2.57-9.39,8-16.67,16.36c0,0,9.39-13,16.57-18.22C45.81-2,50.92.35,52.29,1.43s3.54,3.45,2.24,9.71-5.91,18-10.24,22.62a8.86,8.86,0,0,1-7.82,3c-3.32-.48-6.38-7-7.55-10.38s-.9-4.28-2.17-6.83S21,12.7,18.38,11.71s-4.41-.29-5.53,1.56S8.31,20.75,7.27,27s.08,7.45,3.24,7c5.68-.77,17.44-13.17,23.06-19.8,0,0-6.94,10.33-13.7,16.35S8.36,38.47,3.13,35.9c-6.61-3.25-.7-18.13-.7-18.13"/><path class="cls-4" d="M11.68,38.65l-1.56,5H8.91l1.56-5Zm3.62,0-2.76,2.4,1.4,2.6H12.33L11,41.09l2.77-2.44Z"/><path class="cls-4" d="M17.93,38.65h1.72l.33,5H18.65l-.08-1H16.52l-.77,1H14.42Zm.67,3-.12-2.34-1.35,2.34Z"/><polygon class="cls-4" points="23.78 38.65 22.22 43.65 20.96 43.65 22.52 38.65 23.78 38.65"/><path class="cls-4" d="M29.62,39.65H26.55c-.44,0-.53-.1-.63.24l-.1.4c-.07.27,0,.36.54.36h1.77c.69,0,.81-.1,1,0s.29.35.17.83L29,42.72a1.35,1.35,0,0,1-.84.91c-.32.14-.64,0-1.4,0H23.51l.3-1h2.94c.77,0,.86.06.95-.24l.15-.44c.09-.36,0-.32-.79-.32H25.39c-.86,0-1.16-.38-1-1.06l.28-.84c.27-.9.72-1.1,1.61-1.1h3.62Z"/><polygon class="cls-4" points="32.36 38.65 31.76 40.65 34.2 40.65 34.8 38.65 36.04 38.65 34.47 43.65 33.23 43.65 33.9 41.65 31.46 41.65 30.79 43.65 29.56 43.65 31.12 38.65 32.36 38.65"/><polygon class="cls-4" points="38.62 38.65 37.06 43.65 35.8 43.65 37.36 38.65 38.62 38.65"/><path class="cls-2" d="M62.7,36.65h1v7h-1Zm4,7L63.84,40l2.91-3.31h1.67l-3,3.22,3,3.78Z"/><path class="cls-2" d="M69.7,43.65l2.83-7h1.4l2.83,7H75.29l-.63-2h-3l-.62,2Zm2.39-3h2.17l-1.09-3.09Z"/><rect class="cls-2" x="79.7" y="36.65" width="1" height="7"/><path class="cls-2" d="M83.7,42.34a8.69,8.69,0,0,0,2,.37c.9,0,1.29-.37,1.29-.87s-.15-.78-1.1-1.23l-.51-.24c-1.18-.55-1.53-1.17-1.53-2.06,0-1.25.73-2.19,2.42-2.19.49,0,1.47.08,1.47.24v1.28c0-.22-.89-.32-1.47-.32-.8,0-1.16.3-1.16.82s.2.68,1,1l.57.25c1.21.58,1.78,1.13,1.78,2.11,0,1.45-1,2.36-2.83,2.36a9.68,9.68,0,0,1-1.87-.3Z"/><polygon class="cls-2" points="91.7 43.65 91.7 36.65 92.7 36.65 92.7 39.65 96.7 39.65 96.7 36.65 97.7 36.65 97.7 43.65 96.7 43.65 96.7 40.65 92.7 40.65 92.7 43.65 91.7 43.65"/><rect class="cls-2" x="100.7" y="36.65" width="2" height="7"/><path class="cls-2" d="M109.7,43.65v-7h2.59c1.46,0,2.46.36,2.46,1.82s-1,2.18-2.62,2.18H110.7v3Zm1-6v2h1.22c.86,0,1.38-.14,1.38-1s-.45-1-1.32-1Z"/><path class="cls-2" d="M117.7,43.65v-7h2.37c1.46,0,2.34.48,2.34,1.8a1.91,1.91,0,0,1-1.48,2l2.29,3.24h-1.63l-1.89-3h-1v3Zm1-6v2h.81c.87,0,1.48-.22,1.48-1.07s-.49-.93-1.27-.93Z"/><path class="cls-2" d="M125,40.1c0-2.49,1.43-4,3.54-4S132,37.31,132,40c0,2.49-1.4,4-3.53,4S125,42.77,125,40.1m5.63-.1c0-2.1-1-2.65-2.09-2.65s-2.09.64-2.09,2.74,1,2.63,2.09,2.63,2.09-.63,2.09-2.72"/><polygon class="cls-2" points="134.71 43.65 134.71 36.65 139.71 36.65 139.71 37.65 136.71 37.65 136.71 39.65 138.71 39.65 138.71 40.65 136.71 40.65 136.71 43.65 134.71 43.65"/><polygon class="cls-2" points="142.71 43.65 142.71 36.65 146.71 36.65 146.71 37.65 143.71 37.65 143.71 39.65 146.71 39.65 146.71 40.65 143.71 40.65 143.71 42.65 146.71 42.65 146.71 43.65 142.71 43.65"/><path class="cls-2" d="M149.7,42.34c0,.21,1.07.37,1.78.37.9,0,1.2-.37,1.2-.87s-.19-.78-1.15-1.23l-.53-.24c-1.18-.55-1.55-1.17-1.55-2.06,0-1.25.91-2.19,2.6-2.19a10.32,10.32,0,0,1,1.65.24v1.28a6.67,6.67,0,0,0-1.65-.32c-.81,0-1.25.3-1.25.82s.16.68.93,1l.55.25c1.21.58,1.76,1.13,1.76,2.11,0,1.45-.84,2.36-2.64,2.36-.72,0-1.7-.13-1.7-.3Z"/><path class="cls-2" d="M156.7,42.34c0,.21,1.11.37,1.82.37.9,0,1.22-.37,1.22-.87s-.19-.78-1.14-1.23l-.53-.24c-1.18-.55-1.54-1.17-1.54-2.06,0-1.25.87-2.19,2.56-2.19.49,0,1.61.08,1.61.24v1.28a6.42,6.42,0,0,0-1.62-.32c-.8,0-1.22.3-1.22.82s.16.68.93,1l.56.25c1.21.58,1.77,1.13,1.77,2.11,0,1.45-.88,2.36-2.69,2.36-.71,0-1.73-.13-1.73-.3Z"/><rect class="cls-2" x="163.7" y="36.65" width="2" height="7"/><path class="cls-2" d="M168.49,40.1c0-2.49,1.43-4,3.54-4s3.52,1.17,3.52,3.85c0,2.49-1.39,4-3.52,4s-3.54-1.18-3.54-3.85m5.63-.1c0-2.1-1-2.65-2.09-2.65s-2.09.64-2.09,2.74,1,2.63,2.09,2.63,2.09-.63,2.09-2.72"/><polygon class="cls-2" points="178.71 43.65 178.71 36.65 179.92 36.65 183.71 41.27 183.71 36.65 184.71 36.65 184.71 43.65 183.49 43.65 179.71 38.2 179.71 43.65 178.71 43.65"/><path class="cls-2" d="M186.92,43.65l2.83-7h1.4l2.83,7h-1.46l-.64-2h-3l-.62,2Zm2.39-3h2.17l-1.09-3.09Z"/><polygon class="cls-2" points="196.71 43.65 196.71 36.65 197.71 36.65 197.71 42.65 201.71 42.65 201.71 43.65 196.71 43.65"/><path class="cls-2" d="M211.7,36.65h2V41a2.81,2.81,0,0,1-3,3,2.68,2.68,0,0,1-3-3V36.65h1v4c0,1.29.26,2.09,1.55,2.09,1.11,0,1.45-.67,1.45-2.09Z"/><polygon class="cls-2" points="216.71 43.65 216.71 36.65 218.14 36.65 221.71 41.27 221.71 36.65 222.71 36.65 222.71 43.65 221.71 43.65 217.71 38.2 217.71 43.65 216.71 43.65"/><rect class="cls-2" x="226.7" y="36.65" width="1" height="7"/><polygon class="cls-2" points="232.85 43.65 230.35 36.65 231.78 36.65 233.67 42.61 235.62 36.65 237.01 36.65 234.46 43.65 232.85 43.65"/><polygon class="cls-2" points="239.71 43.65 239.71 36.65 243.71 36.65 243.71 37.65 240.71 37.65 240.71 39.65 243.71 39.65 243.71 40.65 240.71 40.65 240.71 42.65 244.71 42.65 244.71 43.65 239.71 43.65"/><path class="cls-2" d="M247.7,43.65v-7h2.17c1.46,0,2.34.48,2.34,1.8a1.92,1.92,0,0,1-1.47,2L253,43.65H251.4l-1.9-3h-.8v3Zm1-6v2h.61c.87,0,1.49-.22,1.49-1.07s-.5-.93-1.28-.93Z"/><path class="cls-2" d="M254.7,42.34a8.87,8.87,0,0,0,2,.37c.9,0,1.31-.37,1.31-.87s-.14-.78-1.1-1.23l-.5-.24c-1.19-.55-1.54-1.17-1.54-2.06,0-1.25.7-2.19,2.39-2.19.49,0,1.44.08,1.44.24v1.28c0-.22-.85-.32-1.44-.32-.8,0-1.13.3-1.13.82s.21.68,1,1l.57.25c1.22.58,1.79,1.13,1.79,2.11,0,1.45-1.05,2.36-2.86,2.36a9.89,9.89,0,0,1-1.91-.3Z"/><rect class="cls-2" x="262.7" y="36.65" width="1" height="7"/><polygon class="cls-2" points="268.7 43.65 268.7 37.65 266.7 37.65 266.7 36.65 272.7 36.65 272.7 37.65 270.7 37.65 270.7 43.65 268.7 43.65"/><polygon class="cls-2" points="276.7 43.65 276.7 40.85 274.08 36.65 275.57 36.65 277.26 40.04 278.95 36.65 280.35 36.65 277.7 40.84 277.7 43.65 276.7 43.65"/></g></g></svg>